<svg width="25" height="22" viewBox="0 0 25 22" fill="none" xmlns="http://www.w3.org/2000/svg">
<path d="M24.7392 0.310814C24.7392 0.139162 24.5769 0 24.3768 0H18.0316C17.5627 0 17.1811 0.327225 17.1811 0.729461V1.56671C17.1811 1.96895 17.5627 2.29617 18.0316 2.29617H18.1573V9.96342H6.95195C6.32154 9.96342 5.80859 10.4033 5.80859 10.9441C5.80859 11.4214 6.20843 11.82 6.73582 11.9069V12.8698C6.73582 15.8112 9.5259 18.2042 12.9553 18.2042H15.9607V20.9074C15.9607 21.0791 16.123 21.2183 16.3231 21.2183H21.8386C22.0387 21.2183 22.201 21.0791 22.201 20.9074V17.9029C22.201 17.7313 22.0387 17.5921 21.8386 17.5921C21.6385 17.5921 21.4762 17.7313 21.4762 17.9029V20.5966H16.6855V17.8934C16.6855 17.7217 16.5232 17.5826 16.3231 17.5826H12.9553C9.92549 17.5826 7.46059 15.4684 7.46059 12.8698V11.9247L21.4762 11.9245V16.4524C21.4762 16.6241 21.6385 16.7633 21.8386 16.7633C22.0387 16.7633 22.201 16.6241 22.201 16.4524V11.9245H23.4007C24.1387 11.9245 24.7391 11.4095 24.7391 10.7766V8.98709C24.7391 8.81544 24.5769 8.67628 24.3768 8.67628C24.1766 8.67628 24.0144 8.81544 24.0144 8.98709V10.7766C24.0144 11.0668 23.7391 11.3029 23.4007 11.3029H18.882V2.29617H24.0144V7.53663C24.0144 7.70828 24.1767 7.84744 24.3768 7.84744C24.5769 7.84744 24.7392 7.70828 24.7392 7.53663V0.310814ZM6.53337 10.944C6.53337 10.7461 6.72113 10.585 6.95195 10.585H18.1573V11.303H6.95195C6.72118 11.303 6.53337 11.142 6.53337 10.944ZM17.9059 1.56671V0.729461C17.9059 0.669991 17.9623 0.621629 18.0316 0.621629H24.0144V1.67454H18.0316C17.9623 1.67454 17.9059 1.62614 17.9059 1.56671Z" fill="#7D8348"/>
<path d="M12.0652 5.89555C12.5057 6.70515 13.4603 7.23535 14.5171 7.23535C16.0086 7.23535 17.222 6.19446 17.222 4.91504C17.222 3.63561 16.0086 2.59473 14.5171 2.59473C13.4603 2.59473 12.5057 3.12493 12.0652 3.93453H11.1252C10.9251 3.93453 10.7628 4.07369 10.7628 4.24534C10.7628 4.41699 10.9251 4.55616 11.1252 4.55616H14.5171C14.7479 4.55616 14.9356 4.71716 14.9356 4.91504C14.9356 5.01081 14.8921 5.10082 14.8131 5.16854C14.7339 5.2365 14.6288 5.27388 14.5171 5.27388H2.70533C2.47461 5.27388 2.28689 5.11288 2.28689 4.915C2.28689 4.81918 2.33052 4.72888 2.40928 4.66109C2.48823 4.59341 2.59337 4.55611 2.70533 4.55611H9.43409C9.63422 4.55611 9.79648 4.41695 9.79648 4.2453C9.79648 4.07365 9.63422 3.93449 9.43409 3.93449H5.15722C4.71675 3.12493 3.76209 2.59473 2.70533 2.59473C1.2136 2.59473 0 3.63561 0 4.91504C0 6.19446 1.2136 7.23535 2.70533 7.23535C3.76214 7.23535 4.71671 6.70515 5.15722 5.89555H12.0652ZM15.3256 5.60807C15.5415 5.42295 15.6603 5.17683 15.6603 4.91504C15.6603 4.37439 15.1475 3.93453 14.5171 3.93453H12.8997C13.2649 3.49243 13.8645 3.21635 14.5171 3.21635C15.609 3.21635 16.4972 3.97838 16.4972 4.91504C16.4972 5.8517 15.609 6.61373 14.5171 6.61373C13.8645 6.61373 13.2649 6.33764 12.8997 5.89555H14.5171C14.8225 5.89555 15.1096 5.79343 15.3256 5.60807ZM2.70533 6.61373C1.61324 6.61373 0.72477 5.8517 0.72477 4.91504C0.72477 3.97838 1.61324 3.21635 2.70533 3.21635C3.35796 3.21635 3.95753 3.49243 4.32277 3.93453H2.70533C2.39976 3.93453 2.11261 4.03648 1.89634 4.22197C1.68079 4.4075 1.56212 4.65363 1.56212 4.91504C1.56212 5.45569 2.07497 5.89555 2.70533 5.89555H4.32277C3.95753 6.33764 3.35796 6.61373 2.70533 6.61373Z" fill="#7D8348"/>
<path d="M20.1094 4.16162C20.1094 4.79458 20.7098 5.30957 21.4479 5.30957C22.1859 5.30957 22.7864 4.79458 22.7864 4.16162C22.7864 3.52866 22.1859 3.01367 21.4479 3.01367C20.7098 3.01367 20.1094 3.52866 20.1094 4.16162ZM22.0616 4.16162C22.0616 4.45185 21.7863 4.688 21.4479 4.688C21.1095 4.688 20.8341 4.45185 20.8341 4.16162C20.8341 3.87139 21.1095 3.63524 21.4479 3.63524C21.7863 3.63524 22.0616 3.87139 22.0616 4.16162Z" fill="#7D8348"/>
</svg>
