<svg width="25" height="23" viewBox="0 0 25 23" fill="none" xmlns="http://www.w3.org/2000/svg">
<path d="M15.9033 14.8063V9.71016C16.1046 9.64245 16.2753 9.50531 16.3847 9.32329C16.4942 9.14127 16.5353 8.92624 16.5007 8.71667C16.4662 8.50711 16.3581 8.31669 16.196 8.17948C16.0339 8.04227 15.8282 7.96723 15.6158 7.96778H14.1777C13.9678 7.96736 13.7645 8.0407 13.6032 8.17498C13.4418 8.30926 13.3328 8.49595 13.2952 8.70243C13.2575 8.90892 13.2936 9.12207 13.3971 9.30466C13.5006 9.48724 13.665 9.62766 13.8615 9.70137C13.7963 10.0127 13.6261 10.2922 13.3793 10.4929C13.1326 10.6936 12.8243 10.8034 12.5062 10.8039H4.72656C4.40848 10.8034 4.10024 10.6935 3.85353 10.4928C3.60682 10.292 3.43662 10.0125 3.37148 9.70117C3.56789 9.62737 3.73213 9.48692 3.83554 9.30436C3.93896 9.1218 3.97497 8.90872 3.93729 8.70232C3.89962 8.49591 3.79065 8.3093 3.6294 8.17504C3.46816 8.04079 3.26489 7.96744 3.05508 7.96778H1.61777C1.40539 7.96727 1.19976 8.04235 1.03767 8.17957C0.875575 8.3168 0.767592 8.50722 0.733039 8.71677C0.698486 8.92632 0.739617 9.14133 0.849074 9.32333C0.95853 9.50533 1.12917 9.64245 1.33047 9.71016V14.8063C0.963765 14.8513 0.626157 15.0288 0.381138 15.3053C0.13612 15.5818 0.000576629 15.9384 0 16.3078L0 21.7254C5.17467e-05 21.816 0.036079 21.9029 0.100167 21.967C0.164255 22.0311 0.251163 22.0671 0.341797 22.0672H1.67109C1.76173 22.0671 1.84864 22.0311 1.91272 21.967C1.97681 21.9029 2.01284 21.816 2.01289 21.7254C2.01356 21.3585 2.15961 21.0068 2.41905 20.7474C2.67849 20.4879 3.03017 20.3419 3.39707 20.3412H13.8367C14.2037 20.3416 14.5555 20.4876 14.815 20.7471C15.0744 21.0066 15.2203 21.3584 15.2207 21.7254C15.2208 21.816 15.2568 21.9029 15.3209 21.967C15.385 22.0311 15.4719 22.0671 15.5625 22.0672H16.8918C16.9824 22.0672 17.0694 22.0312 17.1335 21.9671C17.1976 21.903 17.2336 21.816 17.2336 21.7254V16.3078C17.233 15.9384 17.0975 15.5819 16.8525 15.3054C16.6075 15.0288 16.27 14.8513 15.9033 14.8063ZM14.1777 8.65137H15.6158C15.6444 8.65051 15.6728 8.65539 15.6995 8.66572C15.7261 8.67605 15.7504 8.69163 15.7709 8.71153C15.7914 8.73143 15.8077 8.75525 15.8189 8.78157C15.83 8.80788 15.8358 8.83617 15.8358 8.86475C15.8358 8.89333 15.83 8.92161 15.8189 8.94793C15.8077 8.97425 15.7914 8.99807 15.7709 9.01797C15.7504 9.03787 15.7261 9.05344 15.6995 9.06378C15.6728 9.07411 15.6444 9.07899 15.6158 9.07813H14.1777C14.1223 9.07645 14.0696 9.05323 14.031 9.0134C13.9923 8.97357 13.9707 8.92025 13.9707 8.86475C13.9707 8.80925 13.9923 8.75593 14.031 8.7161C14.0696 8.67627 14.1223 8.65305 14.1777 8.65137ZM4.72656 11.4875H12.5062C12.9953 11.487 13.4683 11.3135 13.8416 10.9976C14.2149 10.6817 14.4643 10.2439 14.5457 9.76172H15.2197V14.7941H14.4254V14.3164C14.4248 13.8115 14.224 13.3275 13.867 12.9705C13.51 12.6135 13.026 12.4127 12.5211 12.4121H10.1793C9.8721 12.4123 9.56953 12.4869 9.29743 12.6295C9.02533 12.7721 8.7918 12.9784 8.6168 13.2309C8.4418 12.9784 8.20827 12.772 7.93617 12.6295C7.66407 12.4869 7.36149 12.4123 7.0543 12.4121H4.7125C4.20762 12.4127 3.72359 12.6135 3.36659 12.9705C3.00958 13.3275 2.80877 13.8115 2.8082 14.3164V14.7941H2.01387V9.76172H2.68789C2.76925 10.2438 3.01856 10.6815 3.39169 10.9974C3.76482 11.3132 4.23769 11.4868 4.72656 11.4875ZM3.49102 14.7941V14.3164C3.49138 13.9928 3.6201 13.6825 3.84895 13.4536C4.0778 13.2248 4.38808 13.0961 4.71172 13.0957H7.05351C7.37715 13.0961 7.68744 13.2248 7.91628 13.4536C8.14513 13.6825 8.27386 13.9928 8.27422 14.3164V14.7941H3.49102ZM8.95781 14.3164C8.95817 13.9928 9.0869 13.6825 9.31575 13.4536C9.54459 13.2248 9.85487 13.0961 10.1785 13.0957H12.5203C12.844 13.0961 13.1542 13.2248 13.3831 13.4536C13.6119 13.6825 13.7407 13.9928 13.741 14.3164V14.7941H8.95859L8.95781 14.3164ZM1.61777 8.65137H3.05586C3.08442 8.65051 3.11287 8.65539 3.13951 8.66572C3.16616 8.67605 3.19046 8.69163 3.21097 8.71153C3.23148 8.73143 3.24778 8.75525 3.25892 8.78157C3.27005 8.80788 3.27579 8.83617 3.27579 8.86475C3.27579 8.89333 3.27005 8.92161 3.25892 8.94793C3.24778 8.97425 3.23148 8.99807 3.21097 9.01797C3.19046 9.03787 3.16616 9.05344 3.13951 9.06378C3.11287 9.07411 3.08442 9.07899 3.05586 9.07813H1.61777C1.58921 9.07899 1.56076 9.07411 1.53412 9.06378C1.50747 9.05344 1.48318 9.03787 1.46267 9.01797C1.44216 8.99807 1.42585 8.97425 1.41471 8.94793C1.40358 8.92161 1.39784 8.89333 1.39784 8.86475C1.39784 8.83617 1.40358 8.80788 1.41471 8.78157C1.42585 8.75525 1.44216 8.73143 1.46267 8.71153C1.48318 8.69163 1.50747 8.67605 1.53412 8.66572C1.56076 8.65539 1.58921 8.65051 1.61777 8.65137ZM0.683594 16.3078C0.683852 16.0877 0.77139 15.8768 0.927003 15.7211C1.08262 15.5655 1.2936 15.478 1.51367 15.4777H15.7199C15.94 15.478 16.151 15.5655 16.3066 15.7211C16.4622 15.8768 16.5497 16.0877 16.55 16.3078V17.6633H0.683594V16.3078ZM16.55 21.3828H15.8762C15.7948 20.9006 15.5454 20.4627 15.1721 20.1468C14.7988 19.8309 14.3258 19.6573 13.8367 19.6568H3.39707C2.90804 19.6573 2.43496 19.8309 2.06166 20.1468C1.68837 20.4627 1.43895 20.9006 1.35762 21.3828H0.683594V18.3469H16.55V21.3828Z" fill="#7D8348"/>
<path d="M24.6586 14.7939H22.0035V13.6025H23.3344C23.3852 13.6025 23.4355 13.5912 23.4814 13.5693C23.5273 13.5474 23.5677 13.5155 23.5998 13.476C23.6318 13.4365 23.6546 13.3904 23.6666 13.3409C23.6785 13.2915 23.6792 13.24 23.6688 13.1902L23.0828 10.407C23.0666 10.3303 23.0246 10.2614 22.9636 10.2121C22.9027 10.1627 22.8267 10.1357 22.7482 10.1357H20.5756C20.4972 10.1357 20.4212 10.1627 20.3603 10.2121C20.2994 10.2615 20.2573 10.3303 20.2412 10.407L19.6553 13.1902C19.6448 13.24 19.6456 13.2915 19.6576 13.3409C19.6695 13.3904 19.6923 13.4365 19.7244 13.476C19.7565 13.5155 19.7969 13.5474 19.8428 13.5693C19.8888 13.5912 19.939 13.6025 19.9898 13.6025H21.3205V14.7939H18.665C18.6201 14.7939 18.5757 14.8027 18.5342 14.8199C18.4927 14.8371 18.455 14.8623 18.4233 14.894C18.3916 14.9257 18.3664 14.9634 18.3492 15.0049C18.332 15.0464 18.3232 15.0908 18.3232 15.1357V21.7252C18.3232 21.8158 18.3593 21.9028 18.4234 21.9669C18.4875 22.031 18.5744 22.067 18.665 22.067H20.2152C20.3059 22.0669 20.3928 22.0309 20.4569 21.9668C20.521 21.9027 20.557 21.8158 20.557 21.7252V18.8576H22.7664V21.7252C22.7665 21.8158 22.8025 21.9027 22.8666 21.9668C22.9307 22.0309 23.0176 22.0669 23.1082 22.067H24.6586C24.7492 22.0669 24.8361 22.0309 24.9002 21.9668C24.9643 21.9027 25.0003 21.8158 25.0004 21.7252V15.1357C25.0004 15.0451 24.9644 14.9582 24.9003 14.8941C24.8362 14.83 24.7492 14.7939 24.6586 14.7939ZM20.8529 10.8197H22.4705L22.9129 12.9193H20.4105L20.8529 10.8197ZM19.0068 15.4775H24.3168V18.174H19.0068V15.4775ZM19.8734 21.3826H19.0068V18.8576H19.8734V21.3826ZM24.3168 21.3826H23.45V18.8576H24.3168V21.3826Z" fill="#7D8348"/>
<path d="M20.9902 17.1675H22.333C22.4237 17.1675 22.5106 17.1315 22.5747 17.0674C22.6388 17.0033 22.6748 16.9163 22.6748 16.8257C22.6748 16.735 22.6388 16.6481 22.5747 16.584C22.5106 16.5199 22.4237 16.4839 22.333 16.4839H20.9902C20.8996 16.4839 20.8126 16.5199 20.7485 16.584C20.6844 16.6481 20.6484 16.735 20.6484 16.8257C20.6484 16.9163 20.6844 17.0033 20.7485 17.0674C20.8126 17.1315 20.8996 17.1675 20.9902 17.1675Z" fill="#7D8348"/>
<path d="M8.6166 6.67012C9.18399 6.67016 9.73866 6.50194 10.2104 6.18674C10.6822 5.87154 11.05 5.42352 11.2671 4.89933C11.4843 4.37513 11.5411 3.79832 11.4304 3.24182C11.3198 2.68533 11.0466 2.17415 10.6454 1.77292C10.2442 1.3717 9.73302 1.09846 9.17653 0.987755C8.62004 0.877048 8.04322 0.933847 7.51902 1.15097C6.99481 1.36809 6.54676 1.73579 6.23153 2.20756C5.9163 2.67932 5.74805 3.23397 5.74805 3.80137C5.74867 4.56198 6.05108 5.29127 6.5889 5.82913C7.12672 6.36698 7.85599 6.66945 8.6166 6.67012ZM8.6166 1.61641C9.0488 1.61637 9.4713 1.7445 9.83068 1.98459C10.1901 2.22468 10.4702 2.56596 10.6356 2.96525C10.801 3.36454 10.8443 3.80392 10.76 4.22782C10.6757 4.65172 10.4675 5.04109 10.1619 5.3467C9.85632 5.65231 9.46695 5.86043 9.04305 5.94474C8.61915 6.02905 8.17978 5.98576 7.78048 5.82035C7.38119 5.65493 7.03992 5.37483 6.79982 5.01545C6.55973 4.65607 6.4316 4.23357 6.43164 3.80137C6.43252 3.22222 6.66303 2.66706 7.07262 2.25761C7.48221 1.84817 8.03745 1.61786 8.6166 1.61719V1.61641Z" fill="#7D8348"/>
<path d="M9.05449 4.72295C9.11894 4.78522 9.20528 4.81969 9.29489 4.81893C9.38451 4.81817 9.47025 4.78224 9.53363 4.71888C9.59702 4.65552 9.63298 4.5698 9.63378 4.48019C9.63457 4.39057 9.60014 4.30422 9.53789 4.23975L8.95898 3.66084V2.8374C8.95898 2.74675 8.92297 2.65981 8.85887 2.59572C8.79478 2.53162 8.70784 2.49561 8.61719 2.49561C8.52654 2.49561 8.4396 2.53162 8.3755 2.59572C8.3114 2.65981 8.27539 2.74675 8.27539 2.8374V3.80166C8.27543 3.89235 8.31146 3.97932 8.37559 4.04346L9.05449 4.72295Z" fill="#7D8348"/>
</svg>
