<svg width="26" height="25" viewBox="0 0 26 25" fill="none" xmlns="http://www.w3.org/2000/svg">
<g clip-path="url(#clip0)">
<path d="M18.6335 15H7.36691C7.12773 15 6.93359 15.1862 6.93359 15.4166V24.5833C6.93359 24.8137 7.12773 24.9999 7.36691 24.9999H18.6336C18.8732 24.9999 19.0669 24.8137 19.0669 24.5833V15.4166C19.0669 15.1862 18.8732 15 18.6335 15ZM18.2002 24.1666H7.80023V15.8333H18.2002V24.1666Z" fill="#7D8348"/>
<path d="M18.6335 15H7.36691C7.12773 15 6.93359 15.1862 6.93359 15.4166V24.5833C6.93359 24.8137 7.12773 24.9999 7.36691 24.9999H18.6336C18.8732 24.9999 19.0669 24.8137 19.0669 24.5833V15.4166C19.0669 15.1862 18.8732 15 18.6335 15ZM18.2002 24.1666H7.80023V15.8333H18.2002V24.1666Z" fill="#7D8348"/>
<path d="M7.36668 15H0.433316C0.194137 15 0 15.1862 0 15.4166V24.5833C0 24.8138 0.194137 25 0.433316 25H7.36663C7.60581 25 7.79995 24.8138 7.79995 24.5833V15.4166C7.8 15.1862 7.60586 15 7.36668 15ZM6.93332 24.1666H0.866684V15.8333H6.93337V24.1666H6.93332Z" fill="#7D8348"/>
<path d="M25.5669 15H18.6335C18.3939 15 18.2002 15.1862 18.2002 15.4166V24.5833C18.2002 24.8137 18.3939 24.9999 18.6335 24.9999H25.5668C25.8065 24.9999 26.0001 24.8137 26.0001 24.5833V15.4166C26.0002 15.1862 25.8065 15 25.5669 15ZM25.1335 24.1666H19.0669V15.8333H25.1336V24.1666H25.1335Z" fill="#7D8348"/>
<path d="M16.9003 18.3335H9.10031C8.86113 18.3335 8.66699 18.5197 8.66699 18.7501V22.9168C8.66699 23.1472 8.86113 23.3334 9.10031 23.3334H16.9003C17.1399 23.3334 17.3336 23.1472 17.3336 22.9168V18.7501C17.3336 18.5197 17.1399 18.3335 16.9003 18.3335ZM16.467 22.5001H9.53362V19.1668H16.4669V22.5001H16.467Z" fill="#7D8348"/>
<path d="M14.3003 16.6665H13.4336V17.4999H14.3003V16.6665Z" fill="#7D8348"/>
<path d="M12.5669 16.6665H11.7002V17.4999H12.5669V16.6665Z" fill="#7D8348"/>
<path d="M10.8335 16.6665H9.9668V17.4999H10.8335V16.6665Z" fill="#7D8348"/>
<path d="M16.0337 16.6665H15.167V17.4999H16.0337V16.6665Z" fill="#7D8348"/>
<path d="M7.36691 18.3335H0.433594V19.1668H7.36691V18.3335Z" fill="#7D8348"/>
<path d="M4.76652 16.6665H3.0332V17.4999H4.76652V16.6665Z" fill="#7D8348"/>
<path d="M4.76652 20H3.0332V20.8333H4.76652V20Z" fill="#7D8348"/>
<path d="M25.5661 18.3335H18.6328V19.1668H25.5661V18.3335Z" fill="#7D8348"/>
<path d="M22.5337 18.75H21.667V24.5833H22.5337V18.75Z" fill="#7D8348"/>
<path d="M22.9667 16.6665H21.2334V17.4999H22.9667V16.6665Z" fill="#7D8348"/>
<path d="M20.8003 20.8335H19.9336V22.0835H20.8003V20.8335Z" fill="#7D8348"/>
<path d="M24.2671 20.8335H23.4004V22.0835H24.2671V20.8335Z" fill="#7D8348"/>
<path d="M18.506 6.78877L16.8996 5.24419V0.41665C16.8996 0.18667 16.7059 0 16.4663 0H9.53294C9.29376 0 9.09962 0.18667 9.09962 0.41665V5.24414L7.49326 6.78872C7.3693 6.90786 7.33208 7.08706 7.39921 7.24287C7.4664 7.39829 7.62453 7.49995 7.79962 7.49995H18.1996C18.3747 7.49995 18.5333 7.39829 18.6 7.24287C18.6672 7.08706 18.6299 6.90791 18.506 6.78877ZM8.84567 6.66665L9.8393 5.71123C9.92076 5.6333 9.96626 5.52705 9.96626 5.41665V0.83335H16.0329V5.4167C16.0329 5.5271 16.0784 5.63335 16.1599 5.71128L17.1535 6.6667H8.84567V6.66665Z" fill="#7D8348"/>
<path d="M23.4003 9.1665C22.4444 9.1665 21.667 9.91401 21.667 10.8332V11.2498H22.5337V10.8332C22.5337 10.3736 22.9224 9.9998 23.4004 9.9998C23.8783 9.9998 24.267 10.3735 24.267 10.8332V15.4165H25.1337V10.8332C25.1336 9.91401 24.3563 9.1665 23.4003 9.1665Z" fill="#7D8348"/>
<path d="M24.7004 13.3335H23.4004V14.1668H24.7004V13.3335Z" fill="#7D8348"/>
<path d="M12.5664 12.5H8.23312C7.99394 12.5 7.7998 12.6862 7.7998 12.9166V15.4167C7.7998 15.6471 7.99394 15.8333 8.23312 15.8333H12.5664C12.8056 15.8333 12.9998 15.6471 12.9998 15.4167V12.9166C12.9998 12.6862 12.8056 12.5 12.5664 12.5ZM12.1331 15H8.66639V13.3333H12.1331V15Z" fill="#7D8348"/>
<path d="M8.23359 13.3335H6.93359V14.1668H8.23359V13.3335Z" fill="#7D8348"/>
<path d="M13.8664 13.3335H12.5664V14.1668H13.8664V13.3335Z" fill="#7D8348"/>
<path d="M7.36668 0H0.433316C0.194137 0 0 0.18667 0 0.41665V5.41665C0 5.64663 0.194137 5.8333 0.433316 5.8333H7.36663C7.60581 5.8333 7.79995 5.64663 7.79995 5.41665V0.41665C7.8 0.18667 7.60586 0 7.36668 0ZM6.93332 5H0.866684V0.83335H6.93337V5H6.93332Z" fill="#7D8348"/>
<path d="M6.06688 2.5H5.2002V4.16665H6.06688V2.5Z" fill="#7D8348"/>
<path d="M25.5669 0H18.6335C18.3939 0 18.2002 0.18667 18.2002 0.41665V5.41665C18.2002 5.64663 18.3939 5.8333 18.6335 5.8333H25.5668C25.8065 5.8333 26.0001 5.64663 26.0001 5.41665V0.41665C26.0002 0.18667 25.8065 0 25.5669 0ZM25.1335 5H19.0669V0.83335H25.1336V5H25.1335Z" fill="#7D8348"/>
<path d="M20.8003 2.5H19.9336V4.16665H20.8003V2.5Z" fill="#7D8348"/>
<path d="M7.8 8.3335H0V9.16684H7.8V8.3335Z" fill="#7D8348"/>
<path d="M1.73387 7.5H0.867188V11.25H1.73387V7.5Z" fill="#7D8348"/>
<path d="M1.3 10.8335C0.583273 10.8335 0 11.3943 0 12.0835C0 12.7727 0.583273 13.3335 1.3 13.3335C2.01673 13.3335 2.6 12.7727 2.6 12.0835C2.6 11.3943 2.01673 10.8335 1.3 10.8335ZM1.3 12.5001C1.06123 12.5001 0.866684 12.3131 0.866684 12.0835C0.866684 11.8539 1.06123 11.6668 1.3 11.6668C1.53877 11.6668 1.73332 11.8539 1.73332 12.0835C1.73332 12.3131 1.53877 12.5001 1.3 12.5001Z" fill="#7D8348"/>
<path d="M3.46629 7.5H2.59961V11.25H3.46629V7.5Z" fill="#7D8348"/>
<path d="M3.0334 10.8335C2.31667 10.8335 1.7334 11.3943 1.7334 12.0835C1.7334 12.7727 2.31667 13.3335 3.0334 13.3335C3.75013 13.3335 4.3334 12.7727 4.3334 12.0835C4.3334 11.3943 3.75013 10.8335 3.0334 10.8335ZM3.0334 12.5001C2.79463 12.5001 2.60008 12.3131 2.60008 12.0835C2.60008 11.8539 2.79463 11.6668 3.0334 11.6668C3.27217 11.6668 3.46672 11.8539 3.46672 12.0835C3.46677 12.3131 3.27217 12.5001 3.0334 12.5001Z" fill="#7D8348"/>
<path d="M5.19969 7.5H4.33301V11.25H5.19969V7.5Z" fill="#7D8348"/>
<path d="M4.7668 10.8335C4.05007 10.8335 3.4668 11.3943 3.4668 12.0835C3.4668 12.7727 4.05007 13.3335 4.7668 13.3335C5.48352 13.3335 6.0668 12.7727 6.0668 12.0835C6.0668 11.3943 5.48352 10.8335 4.7668 10.8335ZM4.7668 12.5001C4.52802 12.5001 4.33348 12.3131 4.33348 12.0835C4.33348 11.8539 4.52802 11.6668 4.7668 11.6668C5.00557 11.6668 5.20011 11.8539 5.20011 12.0835C5.20011 12.3131 5.00557 12.5001 4.7668 12.5001Z" fill="#7D8348"/>
</g>
<defs>
<clipPath id="clip0">
<rect width="26" height="25" fill="white"/>
</clipPath>
</defs>
</svg>
