<svg width="24" height="25" viewBox="0 0 24 25" fill="none" xmlns="http://www.w3.org/2000/svg">
<path d="M0.945035 10.4425L1.72273 10.8856L2.14809 11.6957C2.18038 11.7571 2.22797 11.8085 2.28585 11.8442C2.34374 11.88 2.40979 11.8988 2.47708 11.8988C2.54437 11.8988 2.61043 11.88 2.66831 11.8442C2.7262 11.8085 2.77378 11.7571 2.80608 11.6957L3.23138 10.8856L4.00908 10.4425C4.06811 10.4089 4.11737 10.3593 4.15169 10.299C4.186 10.2387 4.20411 10.1699 4.20411 10.0998C4.20411 10.0297 4.186 9.96092 4.15169 9.90063C4.11737 9.84033 4.06811 9.79076 4.00908 9.75712L3.23138 9.31404L2.80608 8.50394C2.77378 8.44245 2.7262 8.39113 2.66831 8.35539C2.61043 8.31964 2.54437 8.30078 2.47708 8.30078C2.40979 8.30078 2.34374 8.31964 2.28585 8.35539C2.22797 8.39113 2.18038 8.44245 2.14809 8.50394L1.72273 9.31404L0.945035 9.75712C0.885998 9.79076 0.836738 9.84033 0.802423 9.90063C0.768107 9.96092 0.75 10.0297 0.75 10.0998C0.75 10.1699 0.768107 10.2387 0.802423 10.299C0.836738 10.3593 0.885998 10.4089 0.945035 10.4425ZM2.17899 9.94456C2.24191 9.90872 2.29365 9.85484 2.32805 9.78929L2.47711 9.50548L2.62611 9.78929C2.66052 9.85484 2.71225 9.90873 2.77518 9.94456L3.04764 10.0998L2.77518 10.255C2.71225 10.2909 2.66051 10.3448 2.62611 10.4103L2.47711 10.6941L2.32805 10.4103C2.29365 10.3448 2.24191 10.2909 2.17899 10.255L1.90653 10.0998L2.17899 9.94456Z" fill="#7D8348"/>
<path d="M4.99093 4.87612L5.76863 5.31915L6.19393 6.12924C6.22623 6.19074 6.27381 6.24205 6.3317 6.2778C6.38958 6.31354 6.45564 6.33241 6.52293 6.33241C6.59022 6.33241 6.65627 6.31354 6.71416 6.2778C6.77204 6.24205 6.81963 6.19074 6.85192 6.12924L7.27728 5.31915L8.05497 4.87612C8.11401 4.84248 8.16327 4.79291 8.19759 4.73262C8.2319 4.67232 8.25001 4.60351 8.25001 4.53342C8.25001 4.46332 8.2319 4.39452 8.19759 4.33422C8.16327 4.27392 8.11401 4.22435 8.05497 4.19071L7.27728 3.74764L6.85192 2.93754C6.81963 2.87604 6.77204 2.82473 6.71416 2.78898C6.65627 2.75324 6.59022 2.73438 6.52293 2.73438C6.45564 2.73438 6.38958 2.75324 6.3317 2.78898C6.27381 2.82473 6.22623 2.87604 6.19393 2.93754L5.76863 3.74764L4.99093 4.19071C4.9319 4.22435 4.88264 4.27392 4.84832 4.33422C4.81401 4.39452 4.7959 4.46332 4.7959 4.53342C4.7959 4.60351 4.81401 4.67232 4.84832 4.73262C4.88264 4.79291 4.9319 4.84248 4.99093 4.87612ZM6.22488 4.37816C6.28781 4.34232 6.33954 4.28843 6.37394 4.22288L6.52294 3.93907L6.67201 4.22288C6.70641 4.28843 6.75814 4.34232 6.82107 4.37816L7.09353 4.53343L6.82107 4.68864C6.75814 4.72448 6.70641 4.77837 6.67201 4.84391L6.52294 5.12773L6.37394 4.84391C6.33954 4.77836 6.28781 4.72447 6.22488 4.68864L5.95242 4.53343L6.22488 4.37816Z" fill="#7D8348"/>
<path d="M18.1875 13.2812H4.5V14.0625H18.1875C18.3366 14.0627 18.4796 14.1245 18.5851 14.2343C18.6905 14.3442 18.7498 14.4931 18.75 14.6484V16.4062H18.6562C18.184 16.4068 17.7312 16.6025 17.3973 16.9503C17.0634 17.2982 16.8755 17.7698 16.875 18.2617V18.3594H15.6232C15.7069 18.1764 15.7502 17.9762 15.75 17.7734V16.6016C15.7496 16.2391 15.6112 15.8916 15.3651 15.6353C15.1191 15.379 14.7855 15.2348 14.4375 15.2344H13.3125C12.9645 15.2348 12.6309 15.379 12.3849 15.6353C12.1388 15.8916 12.0004 16.2391 12 16.6016V17.7734C11.9998 17.9762 12.0431 18.1764 12.1268 18.3594H11.5312C11.2598 18.3594 10.992 18.424 10.7482 18.5485C10.5045 18.6729 10.2913 18.8538 10.125 19.0772C9.9587 18.8538 9.74552 18.6729 9.50177 18.5485C9.25803 18.424 8.99019 18.3594 8.71875 18.3594H8.12325C8.20692 18.1764 8.25023 17.9762 8.25 17.7734V16.6016C8.24961 16.2391 8.1112 15.8916 7.86515 15.6353C7.61909 15.379 7.28548 15.2348 6.9375 15.2344H5.8125C5.46452 15.2348 5.13091 15.379 4.88485 15.6353C4.6388 15.8916 4.50039 16.2391 4.5 16.6016V17.7734C4.49977 17.9762 4.54308 18.1764 4.62675 18.3594H3.375V18.2617C3.37446 17.7698 3.18662 17.2982 2.85269 16.9503C2.51876 16.6025 2.066 16.4068 1.59375 16.4062H1.5V14.6484C1.50016 14.4931 1.55948 14.3442 1.66493 14.2343C1.77039 14.1245 1.91337 14.0627 2.0625 14.0625H3.75V13.2812H2.0625C1.71452 13.2817 1.38091 13.4258 1.13485 13.6821C0.888796 13.9384 0.75039 14.286 0.75 14.6484V23.8281C0.75 23.9317 0.789509 24.0311 0.859835 24.1043C0.930161 24.1776 1.02554 24.2188 1.125 24.2188H3C3.09946 24.2188 3.19484 24.1776 3.26516 24.1043C3.33549 24.0311 3.375 23.9317 3.375 23.8281V23.0469H14.625V22.2656H3.375V21.4844H16.875V22.2656H15.375V23.0469H16.875V23.8281C16.875 23.9317 16.9145 24.0311 16.9848 24.1043C17.0552 24.1776 17.1505 24.2188 17.25 24.2188H19.125C19.2245 24.2188 19.3198 24.1776 19.3902 24.1043C19.4605 24.0311 19.5 23.9317 19.5 23.8281V14.6484C19.4996 14.286 19.3612 13.9384 19.1151 13.6821C18.8691 13.4258 18.5355 13.2817 18.1875 13.2812ZM12.75 17.7734V16.6016C12.7502 16.4462 12.8095 16.2973 12.9149 16.1874C13.0204 16.0776 13.1634 16.0158 13.3125 16.0156H14.4375C14.5866 16.0158 14.7296 16.0776 14.8351 16.1874C14.9405 16.2973 14.9998 16.4462 15 16.6016V17.7734C14.9998 17.9288 14.9405 18.0777 14.8351 18.1876C14.7296 18.2974 14.5866 18.3592 14.4375 18.3594H13.3125C13.1634 18.3592 13.0204 18.2974 12.9149 18.1876C12.8095 18.0777 12.7502 17.9288 12.75 17.7734ZM5.25 17.7734V16.6016C5.25016 16.4462 5.30948 16.2973 5.41493 16.1874C5.52039 16.0776 5.66337 16.0158 5.8125 16.0156H6.9375C7.08663 16.0158 7.22961 16.0776 7.33507 16.1874C7.44052 16.2973 7.49984 16.4462 7.5 16.6016V17.7734C7.49984 17.9288 7.44052 18.0777 7.33507 18.1876C7.22961 18.2974 7.08663 18.3592 6.9375 18.3594H5.8125C5.66337 18.3592 5.52039 18.2974 5.41493 18.1876C5.30948 18.0777 5.25016 17.9288 5.25 17.7734ZM2.625 23.4375H1.5V17.1875H1.59375C1.86716 17.1878 2.12928 17.3011 2.32261 17.5025C2.51594 17.7039 2.62469 17.9769 2.625 18.2617V23.4375ZM3.375 19.1406H8.71875C8.99216 19.1409 9.25428 19.2542 9.44761 19.4556C9.64094 19.657 9.74969 19.93 9.75 20.2148V20.7031H3.375V19.1406ZM10.5 20.7031V20.2148C10.5003 19.93 10.6091 19.657 10.8024 19.4556C10.9957 19.2542 11.2578 19.1409 11.5312 19.1406H16.875V20.7031H10.5ZM18.75 23.4375H17.625V18.2617C17.6253 17.9769 17.7341 17.7039 17.9274 17.5025C18.1207 17.3011 18.3828 17.1878 18.6562 17.1875H18.75V23.4375Z" fill="#7D8348"/>
<path d="M23.25 3.90625V1.17188C23.25 1.06827 23.2105 0.968918 23.1402 0.895661C23.0698 0.822405 22.9745 0.78125 22.875 0.78125H9.375C9.27554 0.78125 9.18016 0.822405 9.10983 0.895661C9.03951 0.968918 9 1.06827 9 1.17188V12.5H9.75V11.7188H22.5V13.2812H20.25V14.0625H22.5V17.1875H20.25V17.9688H22.5V23.4375H20.25V24.2188H22.875C22.9745 24.2188 23.0698 24.1776 23.1402 24.1043C23.2105 24.0311 23.25 23.9317 23.25 23.8281V4.6875H22.5V6.25H18.75V1.5625H22.5V3.90625H23.25ZM18 6.25H14.25V1.5625H18V6.25ZM9.75 1.5625H13.5V6.25H9.75V1.5625ZM9.75 7.03125H18V10.9375H9.75V7.03125ZM22.5 10.9375H21V7.03125H22.5V10.9375ZM20.25 7.03125V10.9375H18.75V7.03125H20.25Z" fill="#7D8348"/>
<path d="M10.5 8.20312H11.25V9.76562H10.5V8.20312Z" fill="#7D8348"/>
<path d="M12 3.51562H12.75V4.29688H12V3.51562Z" fill="#7D8348"/>
<path d="M15 3.51562H15.75V4.29688H15V3.51562Z" fill="#7D8348"/>
<path d="M19.875 4.6875H21.375V5.46875H19.875V4.6875Z" fill="#7D8348"/>
<path d="M20.25 19.9219H21V21.4844H20.25V19.9219Z" fill="#7D8348"/>
</svg>
