<svg width="39" height="39" viewBox="0 0 39 39" fill="none" xmlns="http://www.w3.org/2000/svg">
<circle cx="19.5" cy="19.5" r="19" stroke="white" stroke-opacity="0.5"/>
<g clip-path="url(#clip0)">
<path d="M25.2812 23.1956L24.0341 22.364L22.9254 21.625C22.7114 21.4827 22.4238 21.5293 22.2659 21.7321L21.5798 22.6141C21.4325 22.8054 21.1674 22.8604 20.956 22.7434C20.4905 22.4845 19.9401 22.2407 18.7255 21.0245C17.5109 19.8084 17.2655 19.2595 17.0066 18.794C16.8896 18.5826 16.9446 18.3175 17.1359 18.1702L18.0179 17.4841C18.2206 17.3262 18.2673 17.0386 18.125 16.8247L17.4087 15.7501L16.5544 14.4688C16.409 14.2507 16.118 14.1852 15.8932 14.32L14.9081 14.911C14.6418 15.0679 14.4461 15.3212 14.3615 15.6184C14.0921 16.6006 14.0378 18.7674 17.5103 22.2399C20.9828 25.7124 23.1494 25.6579 24.1316 25.3885C24.4288 25.3039 24.6821 25.1082 24.839 24.8419L25.43 23.8568C25.5648 23.632 25.4993 23.3409 25.2812 23.1956Z" fill="white"/>
<path d="M20.65 15.9956C22.4702 15.9976 23.9454 17.4727 23.9474 19.293C23.9474 19.4001 24.0342 19.4869 24.1414 19.4869C24.2485 19.4869 24.3353 19.4001 24.3353 19.293C24.3331 17.2586 22.6844 15.6099 20.65 15.6077C20.5429 15.6077 20.4561 15.6945 20.4561 15.8016C20.456 15.9087 20.5429 15.9956 20.65 15.9956Z" fill="white"/>
<path d="M20.65 17.1594C21.8278 17.1608 22.7822 18.1153 22.7836 19.293C22.7836 19.4001 22.8705 19.487 22.9776 19.487C23.0847 19.487 23.1716 19.4002 23.1716 19.293C23.17 17.9011 22.042 16.7731 20.65 16.7715C20.5429 16.7715 20.4561 16.8583 20.4561 16.9655C20.4561 17.0726 20.5429 17.1594 20.65 17.1594Z" fill="white"/>
<path d="M20.65 18.3232C21.1854 18.3239 21.6192 18.7577 21.6198 19.293C21.6198 19.4002 21.7067 19.487 21.8138 19.487C21.9209 19.487 22.0078 19.4002 22.0078 19.293C22.0069 18.5435 21.3995 17.9362 20.65 17.9353C20.5429 17.9353 20.4561 18.0221 20.4561 18.1293C20.456 18.2364 20.5429 18.3232 20.65 18.3232Z" fill="white"/>
</g>
<defs>
<clipPath id="clip0">
<rect width="11.25" height="11.25" fill="white" transform="translate(14.25 14.25)"/>
</clipPath>
</defs>
</svg>
