<svg width="24" height="24" viewBox="0 0 24 24" fill="none" xmlns="http://www.w3.org/2000/svg">
<g clip-path="url(#clip0)">
<path d="M19.1737 12C19.1737 16.7545 15.6478 20.6859 11.0681 21.3211C10.6416 21.3806 10.2056 21.4111 9.76266 21.4111C4.56469 21.4111 0.351562 17.1975 0.351562 12C0.351562 7.3734 3.68953 3.52684 8.08875 2.73746C8.63203 2.63996 9.19125 2.58887 9.76266 2.58887C14.9602 2.58887 19.1737 6.80199 19.1737 12Z" fill="#FFE8A7"/>
<path d="M19.1739 12C19.1739 16.7545 15.6479 20.6859 11.0682 21.3211C15.1595 20.2987 18.19 16.5984 18.19 12.1907C18.19 6.99277 13.9764 2.77965 8.77887 2.77965C8.43809 2.77965 8.21262 2.76371 8.08887 2.73746C8.63215 2.63996 9.19137 2.58887 9.76277 2.58887C14.9603 2.58887 19.1739 6.80199 19.1739 12Z" fill="#FFD469"/>
<path d="M17.3371 11.9998C17.3371 16.183 13.9461 19.5739 9.76301 19.5739C9.46582 19.5739 9.17285 19.5565 8.88457 19.5237C5.11535 19.0883 2.18848 15.8858 2.18848 11.9998C2.18848 7.91232 5.42613 4.58092 9.4766 4.43092C9.57176 4.42717 9.66738 4.42529 9.76301 4.42529C13.9461 4.42529 17.3371 7.8167 17.3371 11.9998Z" fill="#FFD469"/>
<path d="M17.3363 11.9998C17.3363 16.183 13.9454 19.5739 9.76223 19.5739C9.46504 19.5739 9.17207 19.5565 8.88379 19.5237C12.9357 19.3747 16.1747 16.0433 16.1747 11.9548C16.1747 8.06795 13.2469 4.86451 9.47582 4.43092C9.57098 4.42717 9.6666 4.42529 9.76223 4.42529C13.9454 4.42529 17.3363 7.8167 17.3363 11.9998Z" fill="#FFBA4C"/>
<path d="M23.6494 15.083C23.6494 15.4716 23.3349 15.7861 22.9463 15.7861H15.6221C15.2335 15.7861 14.9189 15.4716 14.9189 15.083C14.9189 14.6949 15.2335 14.3799 15.6221 14.3799H22.9463C23.3349 14.3799 23.6494 14.6949 23.6494 15.083Z" fill="#D1E16F"/>
<path d="M23.6494 16.4893C23.6494 16.8779 23.3349 17.1924 22.9463 17.1924H15.6221C15.2335 17.1924 14.9189 16.8779 14.9189 16.4893C14.9189 16.1011 15.2335 15.7861 15.6221 15.7861H22.9463C23.3349 15.7861 23.6494 16.1011 23.6494 16.4893Z" fill="#9CCC4B"/>
<path d="M23.6494 17.8955C23.6494 18.2841 23.3349 18.5986 22.9463 18.5986H15.6221C15.2335 18.5986 14.9189 18.2841 14.9189 17.8955C14.9189 17.5074 15.2335 17.1924 15.6221 17.1924H22.9463C23.3349 17.1924 23.6494 17.5074 23.6494 17.8955Z" fill="#D1E16F"/>
<path d="M23.6494 20.708C23.6494 21.0966 23.3349 21.4111 22.9463 21.4111H15.6221C15.2335 21.4111 14.9189 21.0966 14.9189 20.708C14.9189 20.3199 15.2335 20.0049 15.6221 20.0049H22.9463C23.3349 20.0049 23.6494 20.3199 23.6494 20.708Z" fill="#D1E16F"/>
<path d="M23.6494 19.3018C23.6494 19.6904 23.3349 20.0049 22.9463 20.0049H15.6221C15.2335 20.0049 14.9189 19.6904 14.9189 19.3018C14.9189 18.9136 15.2335 18.5986 15.6221 18.5986H22.9463C23.3349 18.5986 23.6494 18.9136 23.6494 19.3018Z" fill="#9CCC4B"/>
<path d="M23.6494 15.083C23.6494 15.4716 23.3349 15.7861 22.9463 15.7861H21.54C21.9286 15.7861 22.2432 15.4716 22.2432 15.083C22.2432 14.6949 21.9286 14.3799 21.54 14.3799H22.9463C23.3349 14.3799 23.6494 14.6949 23.6494 15.083Z" fill="#9CCC4B"/>
<path d="M23.6494 16.4893C23.6494 16.8779 23.3349 17.1924 22.9463 17.1924H21.54C21.9286 17.1924 22.2432 16.8779 22.2432 16.4893C22.2432 16.1011 21.9286 15.7861 21.54 15.7861H22.9463C23.3349 15.7861 23.6494 16.1011 23.6494 16.4893Z" fill="#3DB75C"/>
<path d="M23.6494 17.8955C23.6494 18.2841 23.3349 18.5986 22.9463 18.5986H21.54C21.9286 18.5986 22.2432 18.2841 22.2432 17.8955C22.2432 17.5074 21.9286 17.1924 21.54 17.1924H22.9463C23.3349 17.1924 23.6494 17.5074 23.6494 17.8955Z" fill="#9CCC4B"/>
<path d="M23.6494 20.708C23.6494 21.0966 23.3349 21.4111 22.9463 21.4111H21.54C21.9286 21.4111 22.2432 21.0966 22.2432 20.708C22.2432 20.3199 21.9286 20.0049 21.54 20.0049H22.9463C23.3349 20.0049 23.6494 20.3199 23.6494 20.708Z" fill="#9CCC4B"/>
<path d="M23.6494 19.3018C23.6494 19.6904 23.3349 20.0049 22.9463 20.0049H21.54C21.9286 20.0049 22.2432 19.6904 22.2432 19.3018C22.2432 18.9136 21.9286 18.5986 21.54 18.5986H22.9463C23.3349 18.5986 23.6494 18.9136 23.6494 19.3018Z" fill="#3DB75C"/>
<path d="M11.1435 11.9168C12.346 11.9168 13.3244 10.9384 13.3244 9.73573C13.3244 8.53311 12.346 7.55469 11.1435 7.55469H8.67164C8.28333 7.55469 7.96856 7.8695 7.96856 8.25781V10.5105H6.99605C6.60773 10.5105 6.29297 10.8253 6.29297 11.2136C6.29297 11.602 6.60773 11.9168 6.99605 11.9168H7.96856V13.2903H6.99605C6.60773 13.2903 6.29297 13.6051 6.29297 13.9934C6.29297 14.3817 6.60773 14.6966 6.99605 14.6966H7.96856V15.6482C7.96856 16.0365 8.28333 16.3513 8.67164 16.3513C9.05995 16.3513 9.37472 16.0365 9.37472 15.6482V14.6966H10.5465C10.9349 14.6966 11.2496 14.3817 11.2496 13.9934C11.2496 13.6051 10.9349 13.2903 10.5465 13.2903H9.37472V11.9168H11.1435ZM9.37472 8.96094H11.1435C11.5707 8.96094 11.9182 9.30851 11.9182 9.73573C11.9182 10.1629 11.5707 10.5105 11.1435 10.5105H9.37472V8.96094Z" fill="#FEAC38"/>
<path d="M13.3064 20.3398C12.1845 20.8171 10.9921 21.0592 9.76223 21.0592C4.767 21.0592 0.703125 16.9951 0.703125 11.9996C0.703125 7.00405 4.767 2.93994 9.76219 2.93994C14.7574 2.93994 18.8213 7.0041 18.8213 11.9996C18.8213 12.3056 18.8059 12.6144 18.7754 12.9174C18.756 13.1106 18.8969 13.2829 19.0901 13.3023C19.2831 13.3218 19.4557 13.1809 19.475 12.9877C19.5078 12.6614 19.5245 12.329 19.5245 11.9996C19.5245 6.61639 15.1451 2.23682 9.76223 2.23682C4.37934 2.23682 0 6.61639 0 11.9996C0 17.3827 4.3793 21.7623 9.76219 21.7623C11.0872 21.7623 12.3723 21.5013 13.5816 20.9867C13.7603 20.9106 13.8435 20.7042 13.7675 20.5255C13.6914 20.3469 13.485 20.2637 13.3064 20.3398Z" fill="black"/>
<path d="M13.3096 18.2925C12.2332 18.9008 11.0066 19.2222 9.7623 19.2222C5.77995 19.2222 2.54004 15.9821 2.54004 11.9995C2.54004 8.01695 5.77995 4.77686 9.7623 4.77686C13.7447 4.77686 16.9846 8.01695 16.9846 11.9995C16.9846 12.3074 16.965 12.6175 16.9264 12.9212C16.9019 13.1138 17.0381 13.2898 17.2308 13.3142C17.4229 13.3389 17.5993 13.2025 17.6239 13.0098C17.6662 12.6769 17.6877 12.337 17.6877 11.9995C17.6877 7.62925 14.1324 4.07373 9.7623 4.07373C5.39224 4.07373 1.83691 7.62925 1.83691 11.9995C1.83691 16.3698 5.39224 19.9254 9.7623 19.9254C11.1275 19.9254 12.4737 19.5724 13.6555 18.9047C13.8245 18.8092 13.8842 18.5947 13.7886 18.4257C13.6931 18.2566 13.4786 18.197 13.3096 18.2925Z" fill="black"/>
<path d="M23.7306 15.7861C23.8979 15.5994 23.9998 15.3529 23.9998 15.083C23.9998 14.5014 23.5267 14.0283 22.9452 14.0283H15.621C15.0395 14.0283 14.5664 14.5014 14.5664 15.083C14.5664 15.3529 14.6683 15.5994 14.8356 15.7861C14.6683 15.9729 14.5664 16.2194 14.5664 16.4893C14.5664 16.7591 14.6683 17.0056 14.8356 17.1924C14.6683 17.3791 14.5664 17.6256 14.5664 17.8955C14.5664 18.1654 14.6683 18.4119 14.8356 18.5986C14.6683 18.7854 14.5664 19.0319 14.5664 19.3018C14.5664 19.5717 14.6683 19.8182 14.8357 20.0049C14.6683 20.1916 14.5664 20.4381 14.5664 20.708C14.5664 21.2896 15.0396 21.7627 15.6211 21.7627H22.9452C23.5267 21.7627 23.9998 21.2896 23.9998 20.708C23.9998 20.4381 23.8979 20.1916 23.7306 20.0049C23.8979 19.8181 23.9998 19.5716 23.9998 19.3018C23.9998 19.0319 23.8979 18.7854 23.7306 18.5986C23.8979 18.4119 23.9998 18.1654 23.9998 17.8955C23.9998 17.6256 23.8979 17.3791 23.7306 17.1924C23.8979 17.0056 23.9998 16.7591 23.9998 16.4893C23.9998 16.2194 23.898 15.9729 23.7306 15.7861ZM15.621 14.7314H22.9452C23.139 14.7314 23.2967 14.8891 23.2967 15.083C23.2967 15.2769 23.139 15.4346 22.9452 15.4346H18.5283C18.3341 15.4346 18.1768 15.592 18.1768 15.7861C18.1768 15.9803 18.3341 16.1377 18.5283 16.1377H22.9452C23.139 16.1377 23.2967 16.2954 23.2967 16.4893C23.2967 16.6831 23.139 16.8408 22.9452 16.8408H15.621C15.4272 16.8408 15.2695 16.6831 15.2695 16.4893C15.2695 16.2954 15.4272 16.1377 15.621 16.1377H16.9059C17.1001 16.1377 17.2575 15.9803 17.2575 15.7861C17.2575 15.592 17.1001 15.4346 16.9059 15.4346H15.621C15.4272 15.4346 15.2695 15.2769 15.2695 15.083C15.2695 14.8891 15.4273 14.7314 15.621 14.7314ZM23.2967 17.8955C23.2967 18.0894 23.139 18.2471 22.9452 18.2471H21.7232C21.529 18.2471 21.3716 18.4045 21.3716 18.5986C21.3716 18.7928 21.529 18.9502 21.7232 18.9502H22.9452C23.139 18.9502 23.2967 19.1079 23.2967 19.3018C23.2967 19.4956 23.139 19.6533 22.9452 19.6533H15.621C15.4272 19.6533 15.2695 19.4956 15.2695 19.3018C15.2695 19.1079 15.4272 18.9502 15.621 18.9502H20.0675C20.2617 18.9502 20.4191 18.7928 20.4191 18.5986C20.4191 18.4045 20.2617 18.2471 20.0675 18.2471H15.621C15.4272 18.2471 15.2695 18.0894 15.2695 17.8955C15.2695 17.7016 15.4272 17.5439 15.621 17.5439H22.9452C23.139 17.5439 23.2967 17.7016 23.2967 17.8955ZM22.9452 21.0596H15.6211C15.4272 21.0596 15.2695 20.9019 15.2695 20.708C15.2695 20.5141 15.4272 20.3564 15.6211 20.3564H22.9452C23.139 20.3564 23.2967 20.5141 23.2967 20.708C23.2967 20.9019 23.139 21.0596 22.9452 21.0596Z" fill="black"/>
<path d="M9.375 10.8616H11.1437C11.7647 10.8616 12.27 10.3563 12.27 9.73525C12.27 9.11415 11.7647 8.60889 11.1437 8.60889H9.375C9.18084 8.60889 9.02344 8.76629 9.02344 8.96045V10.51C9.02344 10.7042 9.18084 10.8616 9.375 10.8616ZM9.72657 9.31206H11.1437C11.377 9.31206 11.5669 9.5019 11.5669 9.73529C11.5669 9.96868 11.377 10.1585 11.1437 10.1585H9.72657V9.31206Z" fill="black"/>
<path d="M11.1435 12.2678C12.5399 12.2678 13.6759 11.1317 13.6759 9.73524C13.6759 8.33874 12.5399 7.20264 11.1435 7.20264H8.67169C8.09016 7.20264 7.617 7.67575 7.617 8.25732V10.1585H6.99605C6.41452 10.1585 5.94141 10.6316 5.94141 11.2132C5.94141 11.7947 6.41452 12.2678 6.99605 12.2678H7.617V12.9383H6.99605C6.41452 12.9383 5.94141 13.4114 5.94141 13.9929C5.94141 14.5745 6.41452 15.0476 6.99605 15.0476H7.617V15.6477C7.617 16.2292 8.09011 16.7024 8.67169 16.7024C9.25322 16.7024 9.72633 16.2292 9.72633 15.6477V15.0476H10.5466C11.1281 15.0476 11.6012 14.5745 11.6012 13.9929C11.6012 13.4114 11.1281 12.9383 10.5466 12.9383H9.72633V12.2678H11.1435ZM9.37472 13.6414H10.5465C10.7404 13.6414 10.8981 13.7991 10.8981 13.9929C10.8981 14.1868 10.7404 14.3445 10.5465 14.3445H9.37472C9.18056 14.3445 9.02316 14.5019 9.02316 14.6961V15.6477C9.02316 15.8415 8.86547 15.9992 8.67164 15.9992C8.47781 15.9992 8.32008 15.8415 8.32008 15.6477V14.6961C8.32008 14.5019 8.16267 14.3445 7.96852 14.3445H6.996C6.80217 14.3445 6.64448 14.1868 6.64448 13.9929C6.64448 13.7991 6.80217 13.6414 6.996 13.6414H7.96852C8.16267 13.6414 8.32008 13.484 8.32008 13.2898V11.9163C8.32008 11.7221 8.16267 11.5647 7.96852 11.5647H6.996C6.80217 11.5647 6.64448 11.407 6.64448 11.2132C6.64448 11.0193 6.80217 10.8616 6.996 10.8616H7.96852C8.16267 10.8616 8.32008 10.7042 8.32008 10.51V8.25732C8.32008 8.06345 8.47777 7.90576 8.67164 7.90576H11.1434C12.1522 7.90576 12.9727 8.72645 12.9727 9.73524C12.9727 10.744 12.1521 11.5647 11.1434 11.5647H9.37472C9.18056 11.5647 9.02316 11.7221 9.02316 11.9163V13.2898C9.02316 13.484 9.18056 13.6414 9.37472 13.6414Z" fill="black"/>
</g>
<defs>
<clipPath id="clip0">
<rect width="24" height="24" fill="white"/>
</clipPath>
</defs>
</svg>
