<svg width="40" height="39" viewBox="0 0 40 39" fill="none" xmlns="http://www.w3.org/2000/svg">
<circle cx="20.25" cy="19.5" r="19" stroke="white" stroke-opacity="0.5"/>
<g clip-path="url(#clip0)">
<path d="M16.541 22.6217H16.5419C16.5426 22.6217 16.5433 22.6216 16.5441 22.6216H26.5034C26.7486 22.6216 26.9642 22.4589 27.0316 22.2232L29.2288 14.5328C29.2762 14.367 29.243 14.1887 29.1393 14.0511C29.0354 13.9135 28.8731 13.8325 28.7007 13.8325H15.2742L14.8815 12.0654C14.8256 11.8141 14.6027 11.6353 14.3452 11.6353H11.0493C10.7459 11.6353 10.5 11.8812 10.5 12.1846C10.5 12.488 10.7459 12.7339 11.0493 12.7339H13.9046C13.9741 13.047 15.7837 21.1904 15.8879 21.6588C15.3041 21.9126 14.8945 22.4947 14.8945 23.1709C14.8945 24.0796 15.6338 24.8188 16.5425 24.8188H26.5034C26.8068 24.8188 27.0527 24.5729 27.0527 24.2695C27.0527 23.9661 26.8068 23.7202 26.5034 23.7202H16.5425C16.2396 23.7202 15.9932 23.4737 15.9932 23.1709C15.9932 22.8685 16.2388 22.6224 16.541 22.6217ZM27.9724 14.9312L26.089 21.5229H16.9831L15.5182 14.9312H27.9724Z" fill="white"/>
<path d="M15.9932 26.4668C15.9932 27.3755 16.7325 28.1147 17.6411 28.1147C18.5498 28.1147 19.2891 27.3755 19.2891 26.4668C19.2891 25.5581 18.5498 24.8188 17.6411 24.8188C16.7325 24.8188 15.9932 25.5581 15.9932 26.4668ZM17.6411 25.9175C17.944 25.9175 18.1904 26.164 18.1904 26.4668C18.1904 26.7696 17.944 27.0161 17.6411 27.0161C17.3383 27.0161 17.0918 26.7696 17.0918 26.4668C17.0918 26.164 17.3383 25.9175 17.6411 25.9175Z" fill="white"/>
<path d="M23.7568 26.4668C23.7568 27.3755 24.4961 28.1147 25.4048 28.1147C26.3134 28.1147 27.0527 27.3755 27.0527 26.4668C27.0527 25.5581 26.3134 24.8188 25.4048 24.8188C24.4961 24.8188 23.7568 25.5581 23.7568 26.4668ZM25.4048 25.9175C25.7076 25.9175 25.9541 26.164 25.9541 26.4668C25.9541 26.7696 25.7076 27.0161 25.4048 27.0161C25.1019 27.0161 24.8555 26.7696 24.8555 26.4668C24.8555 26.164 25.1019 25.9175 25.4048 25.9175Z" fill="white"/>
</g>
<defs>
<clipPath id="clip0">
<rect width="18.75" height="18.75" fill="white" transform="translate(10.5 10.5)"/>
</clipPath>
</defs>
</svg>
